<svg xmlns="http://www.w3.org/2000/svg" xmlns:xlink="http://www.w3.org/1999/xlink" version="1.1" width="256" height="256" viewBox="0 0 256 256" xml:space="preserve">

<defs>
</defs>
<g style="stroke: none; stroke-width: 0; stroke-dasharray: none; stroke-linecap: butt; stroke-linejoin: miter; stroke-miterlimit: 10; fill: none; fill-rule: nonzero; opacity: 1;" transform="translate(1.4065934065934016 1.4065934065934016) scale(2.81 2.81)" >
	<rect x="29.71" y="33.04" rx="0" ry="0" width="30.58" height="55.95" style="stroke: none; stroke-width: 1; stroke-dasharray: none; stroke-linecap: butt; stroke-linejoin: miter; stroke-miterlimit: 10; fill: rgb(168,148,125); fill-rule: nonzero; opacity: 1;" transform=" matrix(1 0 0 1 0 0) "/>
	<rect x="60.29" y="43.25" rx="0" ry="0" width="12.47" height="45.74" style="stroke: none; stroke-width: 1; stroke-dasharray: none; stroke-linecap: butt; stroke-linejoin: miter; stroke-miterlimit: 10; fill: rgb(154,132,106); fill-rule: nonzero; opacity: 1;" transform=" matrix(1 0 0 1 0 0) "/>
	<rect x="17.24" y="43.25" rx="0" ry="0" width="12.47" height="45.74" style="stroke: none; stroke-width: 1; stroke-dasharray: none; stroke-linecap: butt; stroke-linejoin: miter; stroke-miterlimit: 10; fill: rgb(154,132,106); fill-rule: nonzero; opacity: 1;" transform=" matrix(1 0 0 1 0 0) "/>
	<polygon points="45,0 48.14,6.36 55.16,7.38 50.08,12.34 51.28,19.33 45,16.03 38.72,19.33 39.92,12.34 34.84,7.38 41.86,6.36 " style="stroke: none; stroke-width: 1; stroke-dasharray: none; stroke-linecap: butt; stroke-linejoin: miter; stroke-miterlimit: 10; fill: rgb(249,220,95); fill-rule: nonzero; opacity: 1;" transform="  matrix(1 0 0 1 0 0) "/>
	<polygon points="21.28,10.44 23.9,15.76 29.78,16.62 25.53,20.76 26.53,26.61 21.28,23.85 16.02,26.61 17.02,20.76 12.77,16.62 18.65,15.76 " style="stroke: none; stroke-width: 1; stroke-dasharray: none; stroke-linecap: butt; stroke-linejoin: miter; stroke-miterlimit: 10; fill: rgb(249,220,95); fill-rule: nonzero; opacity: 1;" transform="  matrix(1 0 0 1 0 0) "/>
	<polygon points="68.72,10.44 71.35,15.76 77.23,16.62 72.97,20.76 73.98,26.61 68.72,23.85 63.47,26.61 64.47,20.76 60.22,16.62 66.1,15.76 " style="stroke: none; stroke-width: 1; stroke-dasharray: none; stroke-linecap: butt; stroke-linejoin: miter; stroke-miterlimit: 10; fill: rgb(249,220,95); fill-rule: nonzero; opacity: 1;" transform="  matrix(1 0 0 1 0 0) "/>
	<polygon points="8.35,29.9 10.22,33.69 14.4,34.3 11.38,37.25 12.09,41.42 8.35,39.45 4.61,41.42 5.32,37.25 2.3,34.3 6.48,33.69 " style="stroke: none; stroke-width: 1; stroke-dasharray: none; stroke-linecap: butt; stroke-linejoin: miter; stroke-miterlimit: 10; fill: rgb(249,220,95); fill-rule: nonzero; opacity: 1;" transform="  matrix(1 0 0 1 0 0) "/>
	<polygon points="81.65,29.9 83.52,33.69 87.7,34.3 84.68,37.25 85.39,41.42 81.65,39.45 77.91,41.42 78.63,37.25 75.6,34.3 79.78,33.69 " style="stroke: none; stroke-width: 1; stroke-dasharray: none; stroke-linecap: butt; stroke-linejoin: miter; stroke-miterlimit: 10; fill: rgb(249,220,95); fill-rule: nonzero; opacity: 1;" transform="  matrix(1 0 0 1 0 0) "/>
	<path d="M 37.408 71.948 c -0.558 0 -1.011 -0.452 -1.011 -1.011 v -3.962 c 0 -0.559 0.453 -1.011 1.011 -1.011 c 0.558 0 1.011 0.452 1.011 1.011 v 3.962 C 38.42 71.496 37.967 71.948 37.408 71.948 z" style="stroke: none; stroke-width: 1; stroke-dasharray: none; stroke-linecap: butt; stroke-linejoin: miter; stroke-miterlimit: 10; fill: rgb(245,237,229); fill-rule: nonzero; opacity: 1;" transform=" matrix(1 0 0 1 0 0) " stroke-linecap="round" />
	<path d="M 45 71.948 c -0.558 0 -1.011 -0.452 -1.011 -1.011 v -3.962 c 0 -0.559 0.453 -1.011 1.011 -1.011 s 1.011 0.452 1.011 1.011 v 3.962 C 46.011 71.496 45.558 71.948 45 71.948 z" style="stroke: none; stroke-width: 1; stroke-dasharray: none; stroke-linecap: butt; stroke-linejoin: miter; stroke-miterlimit: 10; fill: rgb(245,237,229); fill-rule: nonzero; opacity: 1;" transform=" matrix(1 0 0 1 0 0) " stroke-linecap="round" />
	<path d="M 52.591 71.948 c -0.559 0 -1.011 -0.452 -1.011 -1.011 v -3.962 c 0 -0.559 0.452 -1.011 1.011 -1.011 s 1.011 0.452 1.011 1.011 v 3.962 C 53.602 71.496 53.15 71.948 52.591 71.948 z" style="stroke: none; stroke-width: 1; stroke-dasharray: none; stroke-linecap: butt; stroke-linejoin: miter; stroke-miterlimit: 10; fill: rgb(245,237,229); fill-rule: nonzero; opacity: 1;" transform=" matrix(1 0 0 1 0 0) " stroke-linecap="round" />
	<path d="M 37.408 81.437 c -0.558 0 -1.011 -0.452 -1.011 -1.011 v -3.961 c 0 -0.559 0.453 -1.011 1.011 -1.011 c 0.558 0 1.011 0.452 1.011 1.011 v 3.961 C 38.42 80.985 37.967 81.437 37.408 81.437 z" style="stroke: none; stroke-width: 1; stroke-dasharray: none; stroke-linecap: butt; stroke-linejoin: miter; stroke-miterlimit: 10; fill: rgb(245,237,229); fill-rule: nonzero; opacity: 1;" transform=" matrix(1 0 0 1 0 0) " stroke-linecap="round" />
	<path d="M 45 81.437 c -0.558 0 -1.011 -0.452 -1.011 -1.011 v -3.961 c 0 -0.559 0.453 -1.011 1.011 -1.011 s 1.011 0.452 1.011 1.011 v 3.961 C 46.011 80.985 45.558 81.437 45 81.437 z" style="stroke: none; stroke-width: 1; stroke-dasharray: none; stroke-linecap: butt; stroke-linejoin: miter; stroke-miterlimit: 10; fill: rgb(245,237,229); fill-rule: nonzero; opacity: 1;" transform=" matrix(1 0 0 1 0 0) " stroke-linecap="round" />
	<path d="M 52.591 81.437 c -0.559 0 -1.011 -0.452 -1.011 -1.011 v -3.961 c 0 -0.559 0.452 -1.011 1.011 -1.011 s 1.011 0.452 1.011 1.011 v 3.961 C 53.602 80.985 53.15 81.437 52.591 81.437 z" style="stroke: none; stroke-width: 1; stroke-dasharray: none; stroke-linecap: butt; stroke-linejoin: miter; stroke-miterlimit: 10; fill: rgb(245,237,229); fill-rule: nonzero; opacity: 1;" transform=" matrix(1 0 0 1 0 0) " stroke-linecap="round" />
	<path d="M 37.408 52.969 c -0.558 0 -1.011 -0.452 -1.011 -1.011 v -3.962 c 0 -0.559 0.453 -1.011 1.011 -1.011 c 0.558 0 1.011 0.452 1.011 1.011 v 3.962 C 38.42 52.517 37.967 52.969 37.408 52.969 z" style="stroke: none; stroke-width: 1; stroke-dasharray: none; stroke-linecap: butt; stroke-linejoin: miter; stroke-miterlimit: 10; fill: rgb(245,237,229); fill-rule: nonzero; opacity: 1;" transform=" matrix(1 0 0 1 0 0) " stroke-linecap="round" />
	<path d="M 45 52.969 c -0.558 0 -1.011 -0.452 -1.011 -1.011 v -3.962 c 0 -0.559 0.453 -1.011 1.011 -1.011 s 1.011 0.452 1.011 1.011 v 3.962 C 46.011 52.517 45.558 52.969 45 52.969 z" style="stroke: none; stroke-width: 1; stroke-dasharray: none; stroke-linecap: butt; stroke-linejoin: miter; stroke-miterlimit: 10; fill: rgb(245,237,229); fill-rule: nonzero; opacity: 1;" transform=" matrix(1 0 0 1 0 0) " stroke-linecap="round" />
	<path d="M 52.591 52.969 c -0.559 0 -1.011 -0.452 -1.011 -1.011 v -3.962 c 0 -0.559 0.452 -1.011 1.011 -1.011 s 1.011 0.452 1.011 1.011 v 3.962 C 53.602 52.517 53.15 52.969 52.591 52.969 z" style="stroke: none; stroke-width: 1; stroke-dasharray: none; stroke-linecap: butt; stroke-linejoin: miter; stroke-miterlimit: 10; fill: rgb(245,237,229); fill-rule: nonzero; opacity: 1;" transform=" matrix(1 0 0 1 0 0) " stroke-linecap="round" />
	<path d="M 37.408 62.459 c -0.558 0 -1.011 -0.452 -1.011 -1.011 v -3.962 c 0 -0.559 0.453 -1.011 1.011 -1.011 c 0.558 0 1.011 0.452 1.011 1.011 v 3.962 C 38.42 62.006 37.967 62.459 37.408 62.459 z" style="stroke: none; stroke-width: 1; stroke-dasharray: none; stroke-linecap: butt; stroke-linejoin: miter; stroke-miterlimit: 10; fill: rgb(245,237,229); fill-rule: nonzero; opacity: 1;" transform=" matrix(1 0 0 1 0 0) " stroke-linecap="round" />
	<path d="M 45 62.459 c -0.558 0 -1.011 -0.452 -1.011 -1.011 v -3.962 c 0 -0.559 0.453 -1.011 1.011 -1.011 s 1.011 0.452 1.011 1.011 v 3.962 C 46.011 62.006 45.558 62.459 45 62.459 z" style="stroke: none; stroke-width: 1; stroke-dasharray: none; stroke-linecap: butt; stroke-linejoin: miter; stroke-miterlimit: 10; fill: rgb(245,237,229); fill-rule: nonzero; opacity: 1;" transform=" matrix(1 0 0 1 0 0) " stroke-linecap="round" />
	<path d="M 52.591 62.459 c -0.559 0 -1.011 -0.452 -1.011 -1.011 v -3.962 c 0 -0.559 0.452 -1.011 1.011 -1.011 s 1.011 0.452 1.011 1.011 v 3.962 C 53.602 62.006 53.15 62.459 52.591 62.459 z" style="stroke: none; stroke-width: 1; stroke-dasharray: none; stroke-linecap: butt; stroke-linejoin: miter; stroke-miterlimit: 10; fill: rgb(245,237,229); fill-rule: nonzero; opacity: 1;" transform=" matrix(1 0 0 1 0 0) " stroke-linecap="round" />
	<path d="M 37.408 43.48 c -0.558 0 -1.011 -0.453 -1.011 -1.011 v -3.962 c 0 -0.558 0.453 -1.011 1.011 -1.011 c 0.558 0 1.011 0.453 1.011 1.011 v 3.962 C 38.42 43.027 37.967 43.48 37.408 43.48 z" style="stroke: none; stroke-width: 1; stroke-dasharray: none; stroke-linecap: butt; stroke-linejoin: miter; stroke-miterlimit: 10; fill: rgb(245,237,229); fill-rule: nonzero; opacity: 1;" transform=" matrix(1 0 0 1 0 0) " stroke-linecap="round" />
	<path d="M 45 43.48 c -0.558 0 -1.011 -0.453 -1.011 -1.011 v -3.962 c 0 -0.558 0.453 -1.011 1.011 -1.011 s 1.011 0.453 1.011 1.011 v 3.962 C 46.011 43.027 45.558 43.48 45 43.48 z" style="stroke: none; stroke-width: 1; stroke-dasharray: none; stroke-linecap: butt; stroke-linejoin: miter; stroke-miterlimit: 10; fill: rgb(245,237,229); fill-rule: nonzero; opacity: 1;" transform=" matrix(1 0 0 1 0 0) " stroke-linecap="round" />
	<path d="M 52.591 43.48 c -0.559 0 -1.011 -0.453 -1.011 -1.011 v -3.962 c 0 -0.558 0.452 -1.011 1.011 -1.011 s 1.011 0.453 1.011 1.011 v 3.962 C 53.602 43.027 53.15 43.48 52.591 43.48 z" style="stroke: none; stroke-width: 1; stroke-dasharray: none; stroke-linecap: butt; stroke-linejoin: miter; stroke-miterlimit: 10; fill: rgb(245,237,229); fill-rule: nonzero; opacity: 1;" transform=" matrix(1 0 0 1 0 0) " stroke-linecap="round" />
	<path d="M 66.524 83.727 c -0.559 0 -1.011 -0.452 -1.011 -1.011 V 48.945 c 0 -0.559 0.452 -1.011 1.011 -1.011 s 1.011 0.452 1.011 1.011 v 33.771 C 67.536 83.275 67.083 83.727 66.524 83.727 z" style="stroke: none; stroke-width: 1; stroke-dasharray: none; stroke-linecap: butt; stroke-linejoin: miter; stroke-miterlimit: 10; fill: rgb(245,237,229); fill-rule: nonzero; opacity: 1;" transform=" matrix(1 0 0 1 0 0) " stroke-linecap="round" />
	<path d="M 23.476 83.727 c -0.558 0 -1.011 -0.452 -1.011 -1.011 V 48.945 c 0 -0.559 0.453 -1.011 1.011 -1.011 s 1.011 0.452 1.011 1.011 v 33.771 C 24.487 83.275 24.034 83.727 23.476 83.727 z" style="stroke: none; stroke-width: 1; stroke-dasharray: none; stroke-linecap: butt; stroke-linejoin: miter; stroke-miterlimit: 10; fill: rgb(245,237,229); fill-rule: nonzero; opacity: 1;" transform=" matrix(1 0 0 1 0 0) " stroke-linecap="round" />
	<path d="M 82.248 89.892 c -0.559 0 -1.011 -0.452 -1.011 -1.011 v -8.703 c 0 -0.559 0.452 -1.011 1.011 -1.011 s 1.011 0.452 1.011 1.011 v 8.703 C 83.259 89.44 82.807 89.892 82.248 89.892 z" style="stroke: none; stroke-width: 1; stroke-dasharray: none; stroke-linecap: butt; stroke-linejoin: miter; stroke-miterlimit: 10; fill: rgb(154,132,106); fill-rule: nonzero; opacity: 1;" transform=" matrix(1 0 0 1 0 0) " stroke-linecap="round" />
	<path d="M 7.752 89.892 c -0.558 0 -1.011 -0.452 -1.011 -1.011 v -8.703 c 0 -0.559 0.453 -1.011 1.011 -1.011 s 1.011 0.452 1.011 1.011 v 8.703 C 8.763 89.44 8.311 89.892 7.752 89.892 z" style="stroke: none; stroke-width: 1; stroke-dasharray: none; stroke-linecap: butt; stroke-linejoin: miter; stroke-miterlimit: 10; fill: rgb(154,132,106); fill-rule: nonzero; opacity: 1;" transform=" matrix(1 0 0 1 0 0) " stroke-linecap="round" />
	<path d="M 87.703 90 H 2.297 c -0.558 0 -1.011 -0.452 -1.011 -1.011 s 0.453 -1.011 1.011 -1.011 h 85.406 c 0.559 0 1.011 0.452 1.011 1.011 S 88.262 90 87.703 90 z" style="stroke: none; stroke-width: 1; stroke-dasharray: none; stroke-linecap: butt; stroke-linejoin: miter; stroke-miterlimit: 10; fill: rgb(154,132,106); fill-rule: nonzero; opacity: 1;" transform=" matrix(1 0 0 1 0 0) " stroke-linecap="round" />
	<path d="M 82.248 82.101 L 82.248 82.101 c -1.884 0 -3.426 -1.542 -3.426 -3.426 V 64.291 c 0 -1.884 1.542 -3.426 3.426 -3.426 h 0 c 1.884 0 3.426 1.542 3.426 3.426 v 14.384 C 85.674 80.559 84.132 82.101 82.248 82.101 z" style="stroke: none; stroke-width: 1; stroke-dasharray: none; stroke-linecap: butt; stroke-linejoin: miter; stroke-miterlimit: 10; fill: rgb(137,221,102); fill-rule: nonzero; opacity: 1;" transform=" matrix(1 0 0 1 0 0) " stroke-linecap="round" />
	<path d="M 7.752 82.101 L 7.752 82.101 c -1.884 0 -3.426 -1.542 -3.426 -3.426 V 64.291 c 0 -1.884 1.542 -3.426 3.426 -3.426 h 0 c 1.884 0 3.426 1.542 3.426 3.426 v 14.384 C 11.178 80.559 9.636 82.101 7.752 82.101 z" style="stroke: none; stroke-width: 1; stroke-dasharray: none; stroke-linecap: butt; stroke-linejoin: miter; stroke-miterlimit: 10; fill: rgb(137,221,102); fill-rule: nonzero; opacity: 1;" transform=" matrix(1 0 0 1 0 0) " stroke-linecap="round" />
</g>
</svg>